HIERARCHY
ROOT hip
{
  OFFSET 0 90.174 2.4664
  CHANNELS 6 Xposition Yposition Zposition Zrotation Xrotation Yrotation
  JOINT abdomen
  {
    OFFSET 0 -1.186 -1.5018
    CHANNELS 6 Xposition Yposition Zposition Zrotation Xrotation Yrotation
    JOINT abdomen2
    {
      OFFSET 0 9.964 0.2134
      CHANNELS 6 Xposition Yposition Zposition Zrotation Xrotation Yrotation
      JOINT chest
      {
        OFFSET 0 13.134 -3.2573
        CHANNELS 6 Xposition Yposition Zposition Zrotation Xrotation Yrotation
        JOINT neck
        {
          OFFSET 0 20.686 -1.6905
          CHANNELS 6 Xposition Yposition Zposition Zrotation Xrotation Yrotation
          JOINT head
          {
            OFFSET 0 7.238 -0.1237
            CHANNELS 6 Xposition Yposition Zposition Zrotation Xrotation Yrotation
            End Site
            {
              OFFSET 0 0 0
            }
          }
        }
        JOINT lCollar
        {
          OFFSET 1.7069 20.075 5.0056
          CHANNELS 6 Xposition Yposition Zposition Zrotation Xrotation Yrotation
          JOINT lShldr
          {
            OFFSET 13.6458 -0.047 -4.849
            CHANNELS 6 Xposition Yposition Zposition Zrotation Xrotation Yrotation
            JOINT lForeArm
            {
              OFFSET 28.3255 -0.9759 2.2888
              CHANNELS 6 Xposition Yposition Zposition Zrotation Xrotation Yrotation
              JOINT lHand
              {
                OFFSET 22.1583 -0.53 10.8316
                CHANNELS 6 Xposition Yposition Zposition Zrotation Xrotation Yrotation
                JOINT lThumb1
                {
                  OFFSET 0.786 0.112 2.5817
                  CHANNELS 6 Xposition Yposition Zposition Zrotation Xrotation Yrotation
                  JOINT lThumb2
                  {
                    OFFSET 0.3601 -0.878 4.2331
                    CHANNELS 6 Xposition Yposition Zposition Zrotation Xrotation Yrotation
                    JOINT lThumb2_End
                    {
                      OFFSET 1.8127 -1.216 2.2227
                      CHANNELS 6 Xposition Yposition Zposition Zrotation Xrotation Yrotation
                      End Site
                      {
                        OFFSET 0.0181 -0.0122 0.0222
                      }
                    }
                  }
                }
                JOINT lCarpal1
                {
                  OFFSET 0.9571 1.114 1.7695
                  CHANNELS 6 Xposition Yposition Zposition Zrotation Xrotation Yrotation
                  JOINT lIndex1
                  {
                    OFFSET 4.1246 0.487 4.1451
                    CHANNELS 6 Xposition Yposition Zposition Zrotation Xrotation Yrotation
                    JOINT lIndex2
                    {
                      OFFSET 3.4052 -1.454 2.7682
                      CHANNELS 6 Xposition Yposition Zposition Zrotation Xrotation Yrotation
                      JOINT lIndex2_End
                      {
                        OFFSET 1.4531 -1.795 1.2713
                        CHANNELS 6 Xposition Yposition Zposition Zrotation Xrotation Yrotation
                        End Site
                        {
                          OFFSET 0.0145 -0.0179 0.0127
                        }
                      }
                    }
                  }
                  JOINT lMid1
                  {
                    OFFSET 5.6954 0.21 2.1184
                    CHANNELS 6 Xposition Yposition Zposition Zrotation Xrotation Yrotation
                    JOINT lMid2
                    {
                      OFFSET 3.9766 -1.54 2.3863
                      CHANNELS 6 Xposition Yposition Zposition Zrotation Xrotation Yrotation
                      JOINT lMid2_End
                      {
                        OFFSET 1.4042 -1.926 1.125
                        CHANNELS 6 Xposition Yposition Zposition Zrotation Xrotation Yrotation
                        End Site
                        {
                          OFFSET 0.014 -0.0193 0.0113
                        }
                      }
                    }
                  }
                }
                JOINT lCarpal2
                {
                  OFFSET 2.0956 0.66 -0.3894
                  CHANNELS 6 Xposition Yposition Zposition Zrotation Xrotation Yrotation
                  JOINT lRing1
                  {
                    OFFSET 5.0395 -0.09 2.4971
                    CHANNELS 6 Xposition Yposition Zposition Zrotation Xrotation Yrotation
                    JOINT lRing2
                    {
                      OFFSET 3.7921 -1.552 1.4806
                      CHANNELS 6 Xposition Yposition Zposition Zrotation Xrotation Yrotation
                      JOINT lRing2_End
                      {
                        OFFSET 1.4655 -1.808 0.9609
                        CHANNELS 6 Xposition Yposition Zposition Zrotation Xrotation Yrotation
                        End Site
                        {
                          OFFSET 0.0147 -0.0181 0.0096
                        }
                      }
                    }
                  }
                  JOINT lPinky1
                  {
                    OFFSET 4.9141 -1.269 0.3591
                    CHANNELS 6 Xposition Yposition Zposition Zrotation Xrotation Yrotation
                    JOINT lPinky2
                    {
                      OFFSET 3.1477 -1.685 0.8462
                      CHANNELS 6 Xposition Yposition Zposition Zrotation Xrotation Yrotation
                      JOINT lPinky2_End
                      {
                        OFFSET 0.8055 -1.585 0.7955
                        CHANNELS 6 Xposition Yposition Zposition Zrotation Xrotation Yrotation
                        End Site
                        {
                          OFFSET 0.0081 -0.0158 0.008
                        }
                      }
                    }
                  }
                }
              }
            }
          }
        }
        JOINT rCollar
        {
          OFFSET -1.7069 20.075 5.0056
          CHANNELS 6 Xposition Yposition Zposition Zrotation Xrotation Yrotation
          JOINT rShldr
          {
            OFFSET -13.6458 -0.047 -4.849
            CHANNELS 6 Xposition Yposition Zposition Zrotation Xrotation Yrotation
            JOINT rForeArm
            {
              OFFSET -28.3255 -0.9759 2.2888
              CHANNELS 6 Xposition Yposition Zposition Zrotation Xrotation Yrotation
              JOINT rHand
              {
                OFFSET -22.1583 -0.53 10.8316
                CHANNELS 6 Xposition Yposition Zposition Zrotation Xrotation Yrotation
                JOINT rThumb1
                {
                  OFFSET -0.786 0.112 2.5817
                  CHANNELS 6 Xposition Yposition Zposition Zrotation Xrotation Yrotation
                  JOINT rThumb2
                  {
                    OFFSET -0.3601 -0.878 4.2331
                    CHANNELS 6 Xposition Yposition Zposition Zrotation Xrotation Yrotation
                    JOINT rThumb2_End
                    {
                      OFFSET -1.8127 -1.216 2.2227
                      CHANNELS 6 Xposition Yposition Zposition Zrotation Xrotation Yrotation
                      End Site
                      {
                        OFFSET -0.0181 -0.0122 0.0222
                      }
                    }
                  }
                }
                JOINT rCarpal1
                {
                  OFFSET -0.9571 1.114 1.7695
                  CHANNELS 6 Xposition Yposition Zposition Zrotation Xrotation Yrotation
                  JOINT rIndex1
                  {
                    OFFSET -4.1246 0.487 4.1451
                    CHANNELS 6 Xposition Yposition Zposition Zrotation Xrotation Yrotation
                    JOINT rIndex2
                    {
                      OFFSET -3.4052 -1.454 2.7682
                      CHANNELS 6 Xposition Yposition Zposition Zrotation Xrotation Yrotation
                      JOINT rIndex2_End
                      {
                        OFFSET -1.4531 -1.795 1.2713
                        CHANNELS 6 Xposition Yposition Zposition Zrotation Xrotation Yrotation
                        End Site
                        {
                          OFFSET -0.0145 -0.018 0.0127
                        }
                      }
                    }
                  }
                  JOINT rMid1
                  {
                    OFFSET -5.6954 0.21 2.1184
                    CHANNELS 6 Xposition Yposition Zposition Zrotation Xrotation Yrotation
                    JOINT rMid2
                    {
                      OFFSET -3.9766 -1.54 2.3863
                      CHANNELS 6 Xposition Yposition Zposition Zrotation Xrotation Yrotation
                      JOINT rMid2_End
                      {
                        OFFSET -1.4042 -1.926 1.125
                        CHANNELS 6 Xposition Yposition Zposition Zrotation Xrotation Yrotation
                        End Site
                        {
                          OFFSET -0.014 -0.0193 0.0113
                        }
                      }
                    }
                  }
                }
                JOINT rCarpal2
                {
                  OFFSET -2.0956 0.66 -0.3894
                  CHANNELS 6 Xposition Yposition Zposition Zrotation Xrotation Yrotation
                  JOINT rRing1
                  {
                    OFFSET -5.0395 -0.09 2.4971
                    CHANNELS 6 Xposition Yposition Zposition Zrotation Xrotation Yrotation
                    JOINT rRing2
                    {
                      OFFSET -3.7921 -1.552 1.4806
                      CHANNELS 6 Xposition Yposition Zposition Zrotation Xrotation Yrotation
                      JOINT rRing2_End
                      {
                        OFFSET -1.4655 -1.808 0.9609
                        CHANNELS 6 Xposition Yposition Zposition Zrotation Xrotation Yrotation
                        End Site
                        {
                          OFFSET -0.0147 -0.0181 0.0096
                        }
                      }
                    }
                  }
                  JOINT rPinky1
                  {
                    OFFSET -4.9141 -1.269 0.3592
                    CHANNELS 6 Xposition Yposition Zposition Zrotation Xrotation Yrotation
                    JOINT rPinky2
                    {
                      OFFSET -3.1477 -1.685 0.8462
                      CHANNELS 6 Xposition Yposition Zposition Zrotation Xrotation Yrotation
                      JOINT rPinky2_End
                      {
                        OFFSET -0.8055 -1.585 0.7955
                        CHANNELS 6 Xposition Yposition Zposition Zrotation Xrotation Yrotation
                        End Site
                        {
                          OFFSET -0.0081 -0.0158 0.008
                        }
                      }
                    }
                  }
                }
              }
            }
          }
        }
      }
    }
  }
  JOINT lThigh
  {
    OFFSET 8.367 -8.2066 0.5982
    CHANNELS 6 Xposition Yposition Zposition Zrotation Xrotation Yrotation
    JOINT lShin
    {
      OFFSET 2.1923 -43.463 -0.4932
      CHANNELS 6 Xposition Yposition Zposition Zrotation Xrotation Yrotation
      JOINT lFoot
      {
        OFFSET 0.7333 -45.8593 -2.6451
        CHANNELS 6 Xposition Yposition Zposition Zrotation Xrotation Yrotation
        End Site
        {
          OFFSET 2.6618 -4.2699 12.3931
        }
      }
    }
  }
  JOINT rThigh
  {
    OFFSET -8.367 -8.2066 0.5982
    CHANNELS 6 Xposition Yposition Zposition Zrotation Xrotation Yrotation
    JOINT rShin
    {
      OFFSET -2.1923 -43.463 -0.4931
      CHANNELS 6 Xposition Yposition Zposition Zrotation Xrotation Yrotation
      JOINT rFoot
      {
        OFFSET -0.7333 -45.8593 -2.6451
        CHANNELS 6 Xposition Yposition Zposition Zrotation Xrotation Yrotation
        End Site
        {
          OFFSET -2.6618 -4.2699 12.3931
        }
      }
    }
  }
}
MOTION
Frames:	4
Frame Time:	0.0333333
42.4061 30.0576 29.1935 -179.995 58.9947 -0.00885826 -7.10543e-015 -1.186 -1.5018 -0.0295699 9.08996 -0.083411 -7.10543e-015 9.964 0.2134 -0.0464324 18.18 -0.165185 0 13.134 -3.2573 -0.0464325 18.18 -0.165185 -7.10543e-015 20.686 -1.6905 2.88739 -0.000629053 -0.56229 0 7.238 -0.1237 -3.85697e-007 0.0604776 1.85448e-007 1.7069 20.075 5.0056 -12.1076 -4.17876 -4.06495 13.6458 -0.047 -4.849 -46.8611 55.1232 6.38036 28.3255 -0.9759 2.2888 16.6312 32.8835 -4.95878 22.1583 -0.53 10.8316 -0.132546 -8.19404 0.270185 0.786 0.112 2.5817 -0 0 3.18055e-015 0.3601 -0.878 4.2331 1.59028e-015 -3.97569e-016 -0 1.8127 -1.216 2.2227 -7.95139e-016 3.97569e-016 3.18055e-015 0.9571 1.114 1.7695 -2.20695e-032 3.97569e-016 3.18055e-015 4.1246 0.487 4.1451 3.18055e-015 -7.95139e-016 6.36111e-015 3.4052 -1.454 2.7682 -3.97569e-016 0 6.36111e-015 1.4531 -1.795 1.2713 -1.19271e-015 -7.95139e-016 3.18055e-015 5.6954 0.21 2.1184 3.18055e-015 -7.95139e-016 6.36111e-015 3.9766 -1.54 2.3863 -3.97569e-016 0 6.36111e-015 1.4042 -1.926 1.125 -1.19271e-015 -7.95139e-016 3.18055e-015 2.0956 0.66 -0.3894 -2.20695e-032 3.97569e-016 3.18055e-015 5.0395 -0.09 2.4971 3.18055e-015 -7.95139e-016 6.36111e-015 3.7921 -1.552 1.4806 -3.97569e-016 0 6.36111e-015 1.4655 -1.808 0.9609 -1.19271e-015 -7.95139e-016 3.18055e-015 4.9141 -1.269 0.3591 3.18055e-015 -7.95139e-016 6.36111e-015 3.1477 -1.685 0.8462 -3.97569e-016 0 6.36111e-015 0.8055 -1.585 0.7955 -1.19271e-015 -7.95139e-016 3.18055e-015 -1.7069 20.075 5.0056 6.25462 -5.42554 3.24958 -13.6458 -0.047 -4.849 55.3634 55.0124 -5.96229 -28.3255 -0.9759 2.2888 -19.0918 32.1649 9.46753 -22.1583 -0.53 10.8316 0.0508 -5.57685 -6.44113 -0.786 0.112 2.5817 -7.95139e-016 -3.18055e-015 6.36111e-015 -0.3601 -0.878 4.2331 4.08002e-007 1.33013e-007 -3.28935e-006 -1.8127 -1.216 2.2227 7.95139e-016 7.95139e-016 9.54166e-015 -0.9571 1.114 1.7695 8.82781e-032 -7.95139e-016 6.36111e-015 -4.1246 0.487 4.1451 7.95139e-016 0 1.59028e-014 -3.4052 -1.454 2.7682 4.08002e-007 1.33013e-007 -3.28935e-006 -1.4531 -1.795 1.2713 1.59028e-015 7.95139e-016 1.27222e-014 -5.6954 0.21 2.1184 7.95139e-016 0 1.59028e-014 -3.9766 -1.54 2.3863 4.08002e-007 1.33013e-007 -3.28935e-006 -1.4042 -1.926 1.125 1.59028e-015 7.95139e-016 1.27222e-014 -2.0956 0.66 -0.3894 8.82781e-032 -7.95139e-016 6.36111e-015 -5.0395 -0.09 2.4971 7.95139e-016 0 1.59028e-014 -3.7921 -1.552 1.4806 4.08002e-007 1.33013e-007 -3.28935e-006 -1.4655 -1.808 0.9609 1.59028e-015 7.95139e-016 1.27222e-014 -4.9141 -1.269 0.3592 7.95139e-016 0 1.59028e-014 -3.1477 -1.685 0.8462 4.08002e-007 1.33013e-007 -3.28935e-006 -0.8055 -1.585 0.7955 1.59028e-015 7.95139e-016 1.27222e-014 8.367 -8.2066 0.5982 56.304 -74.8381 87.0058 2.1923 -43.463 -0.4932 1.59243 32.9637 -41.593 0.7333 -45.8593 -2.6451 21.6849 1.48617 4.58717 -8.367 -8.2066 0.5982 -52.4462 -76.6632 -83.4202 -2.1923 -43.463 -0.4931 -1.58783 33.0053 41.6379 -0.7333 -45.8593 -2.6451 -24.2539 1.63926 -5.69024 
42.401 30.0573 29.1948 -179.995 58.9947 -0.00885826 0 -1.186 -1.5018 -0.0293866 9.03475 -0.0834897 0 9.964 0.2134 -0.0461232 18.0696 -0.165367 0 13.134 -3.2573 -0.0461232 18.0696 -0.165367 0 20.686 -1.6905 3.03435 0.350529 -0.599867 7.10543e-015 7.238 -0.1237 -6.61858e-008 0.0601688 -5.08664e-007 1.7069 20.075 5.0056 -12.3879 -4.01845 -3.9584 13.6458 -0.047 -4.849 -46.6544 55.1263 6.39263 28.3255 -0.9759 2.2888 16.6313 32.8835 -4.95879 22.1583 -0.53 10.8316 -0.14684 -8.05738 0.189095 0.786 0.112 2.5817 3.97569e-016 0 -3.18055e-015 0.3601 -0.878 4.2331 -1.32417e-031 -7.95139e-016 -9.54166e-015 1.8127 -1.216 2.2227 3.97569e-016 -3.97569e-016 1.27222e-014 0.9571 1.114 1.7695 -3.97569e-016 -3.97569e-016 -3.18055e-015 4.1246 0.487 4.1451 1.98785e-015 3.97569e-016 1.27222e-014 3.4052 -1.454 2.7682 7.95139e-016 -7.95139e-016 6.36111e-015 1.4531 -1.795 1.2713 7.95139e-016 0 1.27222e-014 5.6954 0.21 2.1184 1.98785e-015 3.97569e-016 1.27222e-014 3.9766 -1.54 2.3863 7.95139e-016 -7.95139e-016 6.36111e-015 1.4042 -1.926 1.125 7.95139e-016 0 1.27222e-014 2.0956 0.66 -0.3894 -3.97569e-016 -3.97569e-016 -3.18055e-015 5.0395 -0.09 2.4971 1.98785e-015 3.97569e-016 1.27222e-014 3.7921 -1.552 1.4806 7.95139e-016 -7.95139e-016 6.36111e-015 1.4655 -1.808 0.9609 7.95139e-016 0 1.27222e-014 4.9141 -1.269 0.3591 1.98785e-015 3.97569e-016 1.27222e-014 3.1477 -1.685 0.8462 7.95139e-016 -7.95139e-016 6.36111e-015 0.8055 -1.585 0.7955 7.95139e-016 0 1.27222e-014 -1.7069 20.075 5.0056 6.50243 -5.23606 3.15115 -13.6458 -0.047 -4.849 55.1794 55.0132 -5.96692 -28.3255 -0.9759 2.2888 -19.0918 32.1649 9.46756 -22.1583 -0.53 10.8316 0.0555304 -5.44817 -6.36193 -0.786 0.112 2.5817 -3.85764e-007 1.81149e-007 1.36564e-008 -0.3601 -0.878 4.2331 -7.95139e-016 -1.59028e-015 3.18055e-015 -1.8127 -1.216 2.2227 -1.59028e-015 -1.59028e-015 -6.36111e-015 -0.9571 1.114 1.7695 -7.95139e-016 -1.59028e-015 3.18055e-015 -4.1246 0.487 4.1451 -3.85764e-007 1.81149e-007 1.36564e-008 -3.4052 -1.454 2.7682 -2.38542e-015 7.95139e-016 -6.36111e-015 -1.4531 -1.795 1.2713 8.82781e-032 -1.59028e-015 3.18055e-015 -5.6954 0.21 2.1184 -3.85764e-007 1.81149e-007 1.36564e-008 -3.9766 -1.54 2.3863 -2.38542e-015 7.95139e-016 -6.36111e-015 -1.4042 -1.926 1.125 8.82781e-032 -1.59028e-015 3.18055e-015 -2.0956 0.66 -0.3894 -7.95139e-016 -1.59028e-015 3.18055e-015 -5.0395 -0.09 2.4971 -3.85764e-007 1.81149e-007 1.36564e-008 -3.7921 -1.552 1.4806 -2.38542e-015 7.95139e-016 -6.36111e-015 -1.4655 -1.808 0.9609 8.82781e-032 -1.59028e-015 3.18055e-015 -4.9141 -1.269 0.3592 -3.85764e-007 1.81149e-007 1.36564e-008 -3.1477 -1.685 0.8462 -2.38542e-015 7.95139e-016 -6.36111e-015 -0.8055 -1.585 0.7955 8.82781e-032 -1.59028e-015 3.18055e-015 8.367 -8.2066 0.5982 56.3201 -74.8269 87.0215 2.1923 -43.463 -0.4932 1.59258 32.9655 -41.5919 0.7333 -45.8593 -2.6451 21.6897 1.48533 4.58697 -8.367 -8.2066 0.5982 -52.6991 -76.5564 -83.6587 -2.1923 -43.463 -0.4931 -1.58802 33.0055 41.6338 -0.7333 -45.8593 -2.6451 -24.1244 1.62836 -5.63275 
42.3959 30.0571 29.1961 -179.995 58.9947 -0.00885826 7.10543e-015 -1.186 -1.5018 -0.0292035 8.97957 -0.083568 -7.10543e-015 9.964 0.2134 -0.045815 17.9592 -0.165548 0 13.134 -3.2573 -0.0458149 17.9592 -0.165548 7.10543e-015 20.686 -1.6905 3.18162 0.701683 -0.638367 7.10543e-015 7.238 -0.1237 -1.93666e-007 0.0598655 1.14612e-007 1.7069 20.075 5.0056 -12.6683 -3.85863 -3.85108 13.6458 -0.047 -4.849 -46.4477 55.1294 6.40486 28.3255 -0.9759 2.2888 16.6313 32.8835 -4.95881 22.1583 -0.53 10.8316 -0.160935 -7.9207 0.10806 0.786 0.112 2.5817 3.97569e-016 3.97569e-016 3.18055e-015 0.3601 -0.878 4.2331 -6.62086e-032 3.97569e-016 9.54166e-015 1.8127 -1.216 2.2227 -1.59028e-015 -1.19271e-015 -6.36111e-015 0.9571 1.114 1.7695 3.97569e-016 3.97569e-016 3.18055e-015 4.1246 0.487 4.1451 2.38542e-015 7.95139e-016 1.90833e-014 3.4052 -1.454 2.7682 -1.19271e-015 -1.59028e-015 -1.27222e-014 1.4531 -1.795 1.2713 -7.95139e-016 -1.19271e-015 -9.54166e-015 5.6954 0.21 2.1184 2.38542e-015 7.95139e-016 1.90833e-014 3.9766 -1.54 2.3863 -1.19271e-015 -1.59028e-015 -1.27222e-014 1.4042 -1.926 1.125 -7.95139e-016 -1.19271e-015 -9.54166e-015 2.0956 0.66 -0.3894 3.97569e-016 3.97569e-016 3.18055e-015 5.0395 -0.09 2.4971 2.38542e-015 7.95139e-016 1.90833e-014 3.7921 -1.552 1.4806 -1.19271e-015 -1.59028e-015 -1.27222e-014 1.4655 -1.808 0.9609 -7.95139e-016 -1.19271e-015 -9.54166e-015 4.9141 -1.269 0.3591 2.38542e-015 7.95139e-016 1.90833e-014 3.1477 -1.685 0.8462 -1.19271e-015 -1.59028e-015 -1.27222e-014 0.8055 -1.585 0.7955 -7.95139e-016 -1.19271e-015 -9.54166e-015 -1.7069 20.075 5.0056 6.75047 -5.04697 3.05192 -13.6458 -0.047 -4.849 54.9954 55.0141 -5.9715 -28.3255 -0.9759 2.2888 -19.0918 32.1649 9.46756 -22.1583 -0.53 10.8316 0.0600795 -5.3195 -6.28274 -0.786 0.112 2.5817 -1.66979e-014 2.06736e-014 -3.18055e-015 -0.3601 -0.878 4.2331 -1.74931e-014 2.22639e-014 -6.36111e-015 -1.8127 -1.216 2.2227 -1.82882e-014 2.06736e-014 -0 -0.9571 1.114 1.7695 -4.41391e-032 -7.95139e-016 -3.18055e-015 -4.1246 0.487 4.1451 -1.66979e-014 2.14687e-014 -0 -3.4052 -1.454 2.7682 -1.74931e-014 2.14687e-014 -6.36111e-015 -1.4531 -1.795 1.2713 -1.74931e-014 2.14687e-014 3.18055e-015 -5.6954 0.21 2.1184 -1.66979e-014 2.14687e-014 -0 -3.9766 -1.54 2.3863 -1.74931e-014 2.14687e-014 -6.36111e-015 -1.4042 -1.926 1.125 -1.74931e-014 2.14687e-014 3.18055e-015 -2.0956 0.66 -0.3894 -4.41391e-032 -7.95139e-016 -3.18055e-015 -5.0395 -0.09 2.4971 -1.66979e-014 2.14687e-014 -0 -3.7921 -1.552 1.4806 -1.74931e-014 2.14687e-014 -6.36111e-015 -1.4655 -1.808 0.9609 -1.74931e-014 2.14687e-014 3.18055e-015 -4.9141 -1.269 0.3592 -1.66979e-014 2.14687e-014 -0 -3.1477 -1.685 0.8462 -1.74931e-014 2.14687e-014 -6.36111e-015 -0.8055 -1.585 0.7955 -1.74931e-014 2.14687e-014 3.18055e-015 8.367 -8.2066 0.5982 56.3367 -74.8157 87.0376 2.1923 -43.463 -0.4932 1.59276 32.9675 -41.5909 0.7333 -45.8593 -2.6451 21.6945 1.48443 4.58678 -8.367 -8.2066 0.5982 -52.948 -76.4494 -83.8932 -2.1923 -43.463 -0.4931 -1.58819 33.0056 41.6296 -0.7333 -45.8593 -2.6451 -23.9949 1.61759 -5.57522 
42.3908 30.0569 29.1974 -179.995 58.9947 -0.00885826 0 -1.186 -1.5018 -0.0290204 8.9244 -0.0836456 7.10543e-015 9.964 0.2134 -0.045507 17.8488 -0.165727 1.42109e-014 13.134 -3.2573 -0.0455069 17.8488 -0.165727 -7.10543e-015 20.686 -1.6905 3.32919 1.05376 -0.677794 7.10543e-015 7.238 -0.1237 4.86289e-007 0.059579 -2.10635e-007 1.7069 20.075 5.0056 -12.949 -3.69932 -3.74301 13.6458 -0.047 -4.849 -46.241 55.1325 6.41705 28.3255 -0.9759 2.2888 16.6313 32.8835 -4.95879 22.1583 -0.53 10.8316 -0.174826 -7.784 0.0271114 0.786 0.112 2.5817 -1.46198e-007 2.81228e-007 3.22959e-006 0.3601 -0.878 4.2331 -1.76556e-031 7.95139e-016 1.27222e-014 1.8127 -1.216 2.2227 -1.59028e-015 1.59028e-015 1.90833e-014 0.9571 1.114 1.7695 -1.59028e-015 3.97569e-016 3.18055e-015 4.1246 0.487 4.1451 -1.46198e-007 2.81228e-007 3.22959e-006 3.4052 -1.454 2.7682 3.97569e-016 1.19271e-015 6.36111e-015 1.4531 -1.795 1.2713 -3.31043e-031 1.19271e-015 1.59028e-014 5.6954 0.21 2.1184 -1.46198e-007 2.81228e-007 3.22959e-006 3.9766 -1.54 2.3863 3.97569e-016 1.19271e-015 6.36111e-015 1.4042 -1.926 1.125 -3.31043e-031 1.19271e-015 1.59028e-014 2.0956 0.66 -0.3894 -1.59028e-015 3.97569e-016 3.18055e-015 5.0395 -0.09 2.4971 -1.46198e-007 2.81228e-007 3.22959e-006 3.7921 -1.552 1.4806 3.97569e-016 1.19271e-015 6.36111e-015 1.4655 -1.808 0.9609 -3.31043e-031 1.19271e-015 1.59028e-014 4.9141 -1.269 0.3591 -1.46198e-007 2.81228e-007 3.22959e-006 3.1477 -1.685 0.8462 3.97569e-016 1.19271e-015 6.36111e-015 0.8055 -1.585 0.7955 -3.31043e-031 1.19271e-015 1.59028e-014 -1.7069 20.075 5.0056 6.99877 -4.85831 2.95191 -13.6458 -0.047 -4.849 54.8115 55.0149 -5.97616 -28.3255 -0.9759 2.2888 -19.0918 32.1649 9.46758 -22.1583 -0.53 10.8316 0.0644482 -5.19081 -6.20362 -0.786 0.112 2.5817 7.95139e-016 -7.95139e-016 -0 -0.3601 -0.878 4.2331 7.95139e-016 0 -3.18055e-015 -1.8127 -1.216 2.2227 1.59028e-015 -7.95139e-016 -0 -0.9571 1.114 1.7695 7.95139e-016 -7.95139e-016 -0 -4.1246 0.487 4.1451 0 0 -3.18055e-015 -3.4052 -1.454 2.7682 2.38542e-015 -7.95139e-016 -0 -1.4531 -1.795 1.2713 1.59028e-015 -7.95139e-016 -0 -5.6954 0.21 2.1184 0 0 -3.18055e-015 -3.9766 -1.54 2.3863 2.38542e-015 -7.95139e-016 -0 -1.4042 -1.926 1.125 1.59028e-015 -7.95139e-016 -0 -2.0956 0.66 -0.3894 7.95139e-016 -7.95139e-016 -0 -5.0395 -0.09 2.4971 0 0 -3.18055e-015 -3.7921 -1.552 1.4806 2.38542e-015 -7.95139e-016 -0 -1.4655 -1.808 0.9609 1.59028e-015 -7.95139e-016 -0 -4.9141 -1.269 0.3592 0 0 -3.18055e-015 -3.1477 -1.685 0.8462 2.38542e-015 -7.95139e-016 -0 -0.8055 -1.585 0.7955 1.59028e-015 -7.95139e-016 -0 8.367 -8.2066 0.5982 56.3525 -74.8044 87.0531 2.1923 -43.463 -0.4932 1.59292 32.9692 -41.5898 0.7333 -45.8593 -2.6451 21.6992 1.48363 4.58658 -8.367 -8.2066 0.5982 -53.1933 -76.3421 -84.1241 -2.1923 -43.463 -0.4931 -1.58838 33.0058 41.6255 -0.7333 -45.8593 -2.6451 -23.8654 1.60697 -5.51767 
